<?xml version="1.0" encoding="utf-8"?>
<!-- Generator: Adobe Illustrator 18.1.1, SVG Export Plug-In . SVG Version: 6.00 Build 0)  -->
<svg version="1.1" id="Layer_1" xmlns:sketch="http://www.bohemiancoding.com/sketch/ns"
	 xmlns="http://www.w3.org/2000/svg" xmlns:xlink="http://www.w3.org/1999/xlink" x="0px" y="0px" viewBox="-190 282 98 78"
	 enable-background="new -190 282 98 78" xml:space="preserve">
<title>diamond</title>
<desc>Created with Sketch.</desc>
<g id="Page-1" sketch:type="MSPage">
	<g id="diamond" transform="translate(2.000000, 1.000000)" sketch:type="MSLayerGroup">
		<path id="Stroke-1" sketch:type="MSShapeGroup" fill="none" stroke="#FFFFFF" stroke-width="3" stroke-linejoin="round" d="
			M-142.7,357v-55.3l-14.3-19l-20.7,3.3l-12,14.7L-142.7,357L-142.7,357z"/>
		<path id="Stroke-2" sketch:type="MSShapeGroup" fill="none" stroke="#FFFFFF" stroke-width="3" stroke-linejoin="round" d="
			M-142.7,355.3l-20.7-43.3l20.7-10.3"/>
		<path id="Stroke-3" sketch:type="MSShapeGroup" fill="none" stroke="#FFFFFF" stroke-width="3" stroke-linejoin="round" d="
			M-157.1,282.7l-6.3,9.7l-26.3,8.3l26.3,11.3v-19.7l-14.3-6.3"/>
		<path id="Stroke-4" sketch:type="MSShapeGroup" fill="none" stroke="#FFFFFF" stroke-width="3" stroke-linejoin="round" d="
			M-142.7,301.7l-20.7-9.3"/>
		<path id="Stroke-5" sketch:type="MSShapeGroup" fill="none" stroke="#FFFFFF" stroke-width="3" stroke-linejoin="round" d="
			M-142.7,357v-55.3l14.3-19l20.7,3.3l12,14.7L-142.7,357L-142.7,357z"/>
		<path id="Stroke-6" sketch:type="MSShapeGroup" fill="none" stroke="#FFFFFF" stroke-width="3" stroke-linejoin="round" d="
			M-142.7,355.3l20.7-43.3l-20.7-10.3"/>
		<path id="Stroke-7" sketch:type="MSShapeGroup" fill="none" stroke="#FFFFFF" stroke-width="3" stroke-linejoin="round" d="
			M-128.4,282.7l6.3,9.7l26.3,8.3l-26.3,11.3v-19.7l14.3-6.3"/>
		<path id="Stroke-8" sketch:type="MSShapeGroup" fill="none" stroke="#FFFFFF" stroke-width="3" stroke-linejoin="round" d="
			M-142.7,301.7l20.7-9.3"/>
	</g>
</g>
</svg>
