<?xml version="1.0" encoding="utf-8"?>
<!-- Generator: Adobe Illustrator 18.1.1, SVG Export Plug-In . SVG Version: 6.00 Build 0)  -->
<svg version="1.1" id="Layer_1" xmlns="http://www.w3.org/2000/svg" xmlns:xlink="http://www.w3.org/1999/xlink" x="0px" y="0px"
	 viewBox="79.3 299.7 321.3 40.6" enable-background="new 79.3 299.7 321.3 40.6" xml:space="preserve">
<g>
	<path fill="#FFFFFF" d="M79.3,301h5.9l8.6,19.3h0.1l8.6-19.3h5.9v29.8h-5.6v-18.3h-0.1l-8.4,18.3h-0.9L85,312.4h-0.1v18.3h-5.6
		C79.3,330.7,79.3,301,79.3,301z"/>
	<path fill="#FFFFFF" d="M132,326.4c-1.9,2.7-4.6,5-9.3,5c-6.2,0-10.7-4.6-10.7-11.9s4.6-11.9,10.4-11.9s10.3,4.6,10.3,11.9v1.7
		h-15.1c0.2,3.5,1.9,5.4,5,5.4c2.9,0,4.4-1.9,5.5-3.5L132,326.4z M127.4,317c-0.2-2.9-2-4.6-5-4.6c-2.8,0-4.6,2.1-4.8,4.6H127.4z"/>
	<path fill="#FFFFFF" d="M135.3,308.2h5.3v2.2h0.1c1.1-1.5,3.4-2.8,5.9-2.8c5,0,8,3.1,8,8.4v14.8H149v-13.4c0-2.9-0.9-4.7-3.9-4.7
		c-2.7,0-4.3,1.7-4.3,4.3v13.8h-5.5L135.3,308.2L135.3,308.2z"/>
	<path fill="#FFFFFF" d="M161,312.9h-3.5v-4.7h3.6v-5.5h5.2v5.5h5.7v4.7h-5.6v9.3c0,2.3,0.5,3.2,3,3.2h1.8v5.3H169
		c-6.3,0-7.9-2.7-7.9-8L161,312.9L161,312.9z"/>
	<path fill="#FFFFFF" d="M188.7,328.6L188.7,328.6c-0.1,0-1.7,2.8-6.2,2.8c-5.8,0-8.1-3.2-8.1-6.7c0-4,2.3-5.7,7.6-7
		s5.8-1.8,5.8-3.1s-1.1-2.4-3.8-2.4c-3.4,0-4.2,1.9-4.8,3.7l-4.6-1.9c1-3.4,3.9-6.4,9.3-6.4c5.1,0,9.4,2.5,9.4,8.9v14.3h-4.7V328.6z
		 M179.7,324.3c0,1.7,1.4,2.3,3.3,2.3c3.6,0,5-1.7,5-3.3v-3.9H188c-0.2,0.5-0.4,1-4.8,2.1C180,322.3,179.7,323.4,179.7,324.3z"/>
	<path fill="#FFFFFF" d="M197.8,299.7h5.8v31h-5.8V299.7z"/>
	<path fill="#FFFFFF" d="M208.2,299.7h5.8v31h-5.8V299.7z"/>
	<path fill="#FFFFFF" d="M226.1,329.6l-9-21.4h5.6l5.8,15.3h0.1l5.8-15.3h5.6L227,340.3h-5.5L226.1,329.6z"/>
	<path fill="#FFFFFF" d="M253.2,301h18.9v5.3H259v7.9h11.9v5.1H259v11.5h-5.8V301z"/>
	<path fill="#FFFFFF" d="M274.6,308.2h5.2v2.4h0.1c0.9-1.7,2.6-2.8,4.6-2.8c0.7,0,1.4,0.1,2.1,0.4l-0.9,5.4
		c-0.6-0.2-1.2-0.3-1.8-0.3c-2.4,0-3.9,1.5-3.9,5.1v12.4h-5.5L274.6,308.2L274.6,308.2z"/>
	<path fill="#FFFFFF" d="M290.2,299.7h5.5v5.2h-5.5V299.7z M290.2,308.2h5.5v22.5h-5.5V308.2z"/>
	<path fill="#FFFFFF" d="M318.3,326.4c-1.9,2.7-4.6,5-9.3,5c-6.2,0-10.7-4.6-10.7-11.9s4.6-11.9,10.4-11.9c5.9,0,10.3,4.6,10.3,11.9
		v1.7h-15.2c0.2,3.5,1.9,5.4,5,5.4c2.9,0,4.4-1.9,5.5-3.5L318.3,326.4z M313.7,317c-0.2-2.9-2-4.6-5-4.6c-2.8,0-4.6,2.1-4.8,4.6
		H313.7z"/>
	<path fill="#FFFFFF" d="M321.6,308.2h5.3v2.2h0.1c1.1-1.5,3.4-2.8,5.9-2.8c5,0,8,3.1,8,8.4v14.8h-5.5v-13.4c0-2.9-0.9-4.7-3.9-4.7
		c-2.7,0-4.3,1.7-4.3,4.3v13.8h-5.5V308.2z"/>
	<path fill="#FFFFFF" d="M359.1,328.6L359.1,328.6c-0.1,0-1.9,2.8-6,2.8c-5.9,0-9.7-4.7-9.7-11.9c0-7.7,4.8-11.9,9.7-11.9
		c4,0,5.7,2.8,5.7,2.8h0.1v-10.7h5.5v31h-5.2v-2.1H359.1z M358.7,317.4c0-2.6-1.8-4.8-4.8-4.8c-3.1,0-5.1,2.3-5.1,7
		c0,4.6,1.9,7,5.1,7c3.1,0,4.8-2.3,4.8-4.9V317.4z"/>
	<path fill="#FFFFFF" d="M368.8,299.7h5.8v31h-5.8V299.7z"/>
	<path fill="#FFFFFF" d="M386.7,329.6l-9-21.4h5.6l5.8,15.3h0.1l5.8-15.3h5.6l-12.9,32.1h-5.5L386.7,329.6z"/>
</g>
</svg>
