<?xml version="1.0" standalone="no"?>
<!DOCTYPE svg PUBLIC "-//W3C//DTD SVG 20010904//EN"
 "http://www.w3.org/TR/2001/REC-SVG-20010904/DTD/svg10.dtd">
<svg version="1.0" xmlns="http://www.w3.org/2000/svg"
 width="1000.000000pt" height="1000.000000pt" viewBox="0 0 1000.000000 1000.000000"
 preserveAspectRatio="xMidYMid meet">
<metadata>
Created by potrace 1.11, written by Peter Selinger 2001-2013
</metadata>
<g transform="translate(0.000000,1000.000000) scale(0.100000,-0.100000)"
fill="#000000" stroke="none">
<path d="M3510 8897 c-3 -3 -23 -7 -45 -10 -50 -7 -162 -25 -195 -32 -14 -3
-43 -7 -65 -10 -22 -3 -51 -7 -65 -9 -22 -4 -365 -60 -430 -71 -14 -2 -70 -11
-125 -20 -55 -9 -111 -18 -125 -20 -44 -6 -344 -55 -365 -59 -11 -2 -45 -7
-75 -12 -30 -4 -57 -8 -60 -9 -3 0 -27 -4 -55 -9 -27 -4 -61 -9 -75 -11 -14
-2 -68 -11 -120 -20 -52 -9 -108 -18 -125 -21 -16 -2 -41 -6 -55 -9 -14 -2
-42 -7 -64 -10 -63 -9 -98 -32 -156 -103 -30 -37 -62 -76 -72 -87 -9 -11 -123
-150 -253 -310 -131 -159 -252 -308 -271 -330 -18 -22 -119 -146 -224 -275
-209 -255 -228 -279 -319 -388 -63 -76 -78 -116 -67 -175 5 -29 71 -115 260
-337 11 -14 55 -66 96 -115 41 -50 77 -92 80 -95 3 -3 34 -41 69 -85 35 -44
69 -84 75 -90 6 -5 29 -32 51 -60 22 -27 42 -52 45 -55 3 -3 129 -153 280
-335 151 -181 285 -341 296 -355 12 -14 44 -52 71 -85 55 -66 862 -1033 923
-1105 21 -25 271 -324 555 -665 546 -654 565 -677 660 -790 33 -40 78 -94 100
-120 22 -27 57 -70 79 -95 21 -25 45 -54 55 -65 81 -99 108 -131 121 -145 8
-10 22 -26 30 -36 23 -29 264 -318 270 -324 3 -3 48 -57 100 -120 52 -63 97
-117 100 -120 3 -3 50 -59 105 -125 55 -66 102 -122 105 -125 3 -3 31 -36 62
-75 31 -38 65 -79 75 -90 10 -11 46 -54 80 -96 64 -78 96 -99 155 -99 46 0 94
28 135 78 66 82 232 280 248 298 6 6 26 30 45 54 19 24 51 62 70 85 19 22 53
63 75 89 22 27 45 54 50 60 6 6 79 94 164 196 84 102 163 196 175 210 11 14
90 108 175 210 84 102 163 196 175 210 12 14 123 147 246 295 124 149 227 272
230 275 3 3 208 248 455 545 248 297 458 549 467 560 9 11 25 30 35 41 23 27
49 58 336 403 131 157 246 295 255 306 9 11 73 87 142 170 69 82 135 161 147
175 11 14 60 72 108 130 48 58 96 116 108 130 12 14 44 52 71 85 28 33 55 65
61 71 5 7 26 31 45 55 19 24 118 143 220 264 102 122 203 243 225 270 22 27
123 148 225 269 102 122 191 234 198 249 14 34 16 76 2 111 -5 14 -55 81 -111
148 -56 68 -116 141 -134 163 -18 22 -68 83 -111 136 -44 53 -95 115 -114 139
-389 479 -777 949 -797 964 -21 16 -166 46 -393 81 -19 3 -46 7 -60 10 -14 2
-43 7 -65 10 -82 12 -115 17 -315 50 -113 19 -223 36 -245 40 -23 3 -52 8 -65
10 -14 3 -45 8 -70 10 -25 3 -52 8 -60 10 -8 3 -33 7 -55 10 -48 7 -280 44
-315 51 -14 2 -41 7 -60 10 -19 3 -46 7 -60 10 -29 5 -212 33 -252 39 -15 2
-55 9 -89 15 -68 13 -119 7 -155 -17 -13 -8 -126 -151 -251 -317 -353 -468
-483 -640 -496 -656 -7 -9 -147 -194 -311 -413 -164 -218 -302 -397 -306 -397
-4 0 -106 132 -227 293 -349 463 -792 1051 -806 1067 -6 9 -39 51 -72 95 -32
44 -63 85 -67 90 -5 6 -46 60 -92 120 -46 61 -94 116 -106 123 -23 14 -111 28
-120 19z m-282 -365 c-3 -8 -46 -73 -280 -428 l-93 -141 -370 164 c-203 90
-394 174 -422 186 -29 12 -53 25 -53 28 0 3 35 11 78 17 42 7 122 19 177 28
55 9 109 17 120 19 27 4 153 25 190 31 17 3 44 7 60 10 64 11 309 50 375 60
25 4 77 12 115 19 89 16 107 17 103 7z m3677 -12 c80 -13 91 -15 160 -25 28
-3 57 -8 65 -10 8 -3 33 -7 55 -10 22 -3 65 -10 95 -15 103 -17 115 -19 155
-25 22 -4 47 -8 55 -10 8 -2 38 -7 65 -11 28 -3 59 -8 70 -10 10 -2 35 -6 55
-9 20 -3 45 -7 55 -9 11 -2 73 -12 138 -22 64 -10 117 -20 117 -23 0 -3 -42
-24 -93 -46 -50 -21 -123 -53 -162 -71 -38 -18 -106 -48 -150 -67 -44 -19
-102 -44 -130 -57 -27 -12 -59 -26 -70 -31 -24 -10 -167 -73 -210 -93 l-30
-13 -165 251 c-91 138 -176 268 -189 290 l-24 38 34 -5 c19 -3 66 -10 104 -17z
m-3284 -115 c74 -99 693 -919 702 -930 4 -5 40 -53 79 -105 38 -52 79 -105 91
-117 11 -13 18 -25 15 -28 -3 -3 -41 11 -84 31 -44 20 -142 64 -219 99 -161
72 -728 328 -825 372 -36 17 -103 47 -150 68 -47 21 -86 39 -88 40 -4 3 35 65
252 394 92 139 171 250 175 245 4 -5 28 -36 52 -69z m2829 68 c0 -5 92 -147
205 -318 113 -171 200 -314 195 -319 -9 -9 -45 -26 -824 -377 -292 -131 -531
-237 -533 -235 -2 1 27 43 65 92 37 49 184 244 327 434 143 190 262 347 265
350 3 3 68 89 145 192 128 171 155 203 155 181z m-4827 -297 c40 -19 200 -90
357 -159 262 -115 361 -159 463 -206 l38 -17 -108 -34 c-59 -18 -142 -44 -183
-57 -246 -79 -332 -106 -480 -153 -235 -73 -917 -289 -982 -310 -16 -5 -28 -7
-28 -5 0 2 26 34 58 72 31 38 73 89 92 113 31 39 334 409 397 485 13 17 77 94
141 173 132 161 115 154 235 98z m6949 -48 c40 -51 77 -98 83 -104 5 -6 26
-31 46 -55 406 -495 586 -717 592 -726 6 -9 1 -10 -20 -3 -15 5 -122 39 -238
76 -115 36 -295 93 -400 126 -104 33 -230 72 -280 88 -49 16 -178 56 -285 90
-107 34 -274 87 -370 117 -96 30 -176 56 -177 57 -2 1 77 38 175 81 204 90
275 121 317 141 122 56 462 203 472 203 6 1 44 -41 85 -91z m-5812 -1338 c0
-423 -2 -770 -4 -770 -5 0 -81 32 -131 55 -16 8 -142 62 -280 121 -137 58
-268 114 -290 124 -153 66 -194 84 -225 98 -19 8 -48 20 -65 27 -16 7 -176 76
-355 153 -179 77 -415 178 -524 225 l-199 85 149 47 c82 26 203 64 269 85 66
21 300 96 520 165 493 156 754 238 955 303 85 28 161 51 168 51 9 1 12 -159
12 -769z m4648 721 c86 -27 301 -95 477 -151 600 -190 860 -273 935 -295 41
-13 109 -34 150 -48 41 -13 135 -43 209 -67 l133 -42 -218 -95 c-121 -52 -223
-95 -229 -97 -5 -1 -14 -4 -20 -7 -27 -16 -623 -269 -633 -269 -7 0 -12 -4
-12 -10 0 -5 -6 -10 -12 -10 -11 0 -254 -102 -383 -160 -22 -10 -116 -51 -210
-90 -163 -70 -200 -86 -300 -130 -25 -11 -47 -20 -50 -20 -3 0 -5 347 -5 770
0 424 3 770 6 770 3 0 76 -22 162 -49z m-4106 -82 c123 -56 286 -130 363 -164
160 -72 424 -190 505 -228 30 -13 147 -66 260 -117 113 -51 207 -94 209 -96 2
-1 -352 -180 -785 -397 l-789 -395 0 749 c0 412 3 749 7 749 4 0 107 -46 230
-101z m3633 -648 l0 -748 -665 332 c-366 183 -721 361 -790 395 l-125 63 50
22 c28 13 191 86 363 164 171 77 450 204 620 280 169 76 357 161 417 189 61
28 115 51 120 51 7 1 10 -254 10 -748z m-2089 -2442 c0 -1226 -2 -2229 -6
-2229 -3 0 -26 42 -50 93 -24 50 -77 162 -118 247 -41 85 -94 198 -119 250
-72 150 -136 286 -196 410 -30 63 -78 165 -107 225 -29 61 -74 155 -100 210
-110 229 -165 345 -205 430 -40 85 -84 176 -226 473 -34 70 -78 163 -99 207
-35 75 -66 140 -197 415 -31 63 -74 156 -98 205 -23 50 -79 166 -124 259 -44
92 -81 172 -81 177 0 11 1713 869 1720 862 3 -3 5 -1008 6 -2234z m2034 1371
c0 -6 -4 -18 -10 -28 -9 -15 -89 -183 -190 -397 -21 -44 -68 -143 -105 -220
-37 -77 -85 -176 -105 -220 -21 -44 -65 -138 -99 -209 -34 -71 -77 -161 -96
-200 -18 -39 -66 -141 -108 -226 -41 -85 -113 -236 -160 -335 -46 -99 -119
-252 -162 -340 -42 -88 -90 -187 -105 -220 -15 -33 -60 -127 -100 -210 -40
-82 -89 -186 -110 -230 -21 -44 -63 -134 -95 -200 -76 -159 -182 -380 -230
-483 -22 -45 -42 -82 -46 -82 -5 0 -6 4458 0 4468 3 6 1721 -859 1721 -868z
m-5745 675 c17 -8 194 -84 395 -170 201 -86 380 -163 397 -171 46 -20 56 -24
458 -197 198 -85 373 -161 389 -168 22 -10 39 -35 72 -106 24 -51 65 -137 91
-190 26 -54 47 -100 48 -103 1 -3 32 -68 69 -145 38 -77 83 -171 101 -210 18
-38 70 -146 114 -239 45 -93 81 -170 81 -171 0 -1 43 -92 96 -201 53 -110 109
-226 124 -259 15 -33 56 -118 90 -190 99 -206 169 -353 215 -450 23 -49 72
-151 107 -225 36 -74 86 -178 111 -230 24 -52 71 -149 102 -215 32 -66 82
-172 112 -235 31 -63 76 -158 100 -210 25 -52 63 -131 84 -175 22 -44 36 -75
31 -70 -21 21 -124 145 -273 325 -57 69 -106 127 -109 130 -3 3 -116 138 -250
300 -135 162 -255 306 -267 320 -12 14 -62 75 -113 135 -50 61 -99 119 -108
130 -10 11 -49 58 -87 105 -38 47 -72 87 -75 90 -3 3 -39 46 -80 95 -41 50
-77 92 -80 95 -3 3 -73 86 -155 185 -83 99 -158 189 -167 200 -9 11 -125 151
-258 310 -133 160 -252 301 -263 315 -12 14 -65 77 -117 140 -52 63 -97 117
-100 120 -3 3 -196 235 -430 515 -234 281 -427 512 -430 515 -3 3 -25 30 -50
60 -25 30 -47 57 -50 60 -3 3 -61 73 -129 155 -69 83 -131 158 -139 167 -11
13 172 -60 343 -137z m8074 138 c-24 -30 -46 -56 -111 -133 -34 -42 -81 -98
-103 -124 -22 -27 -45 -54 -50 -60 -6 -6 -42 -49 -80 -96 -38 -47 -72 -87 -75
-90 -3 -3 -219 -261 -480 -575 -261 -313 -477 -572 -480 -575 -3 -3 -39 -45
-80 -95 -41 -49 -82 -99 -92 -110 -9 -11 -67 -81 -128 -155 -62 -74 -132 -157
-155 -185 -36 -42 -212 -253 -354 -424 -20 -24 -41 -49 -46 -55 -6 -6 -156
-186 -335 -401 -178 -214 -329 -395 -335 -401 -5 -6 -24 -29 -42 -50 -26 -32
-280 -337 -453 -544 -21 -25 -99 -119 -175 -210 -174 -210 -171 -207 -134
-130 53 109 159 330 204 425 24 50 69 144 100 210 32 66 77 161 100 210 24 50
73 153 110 230 37 77 84 176 105 220 21 44 70 148 110 230 40 83 89 186 110
230 70 149 127 269 195 410 37 77 86 181 110 230 24 50 71 149 105 220 34 72
75 157 90 190 15 33 71 149 124 258 53 109 96 200 96 202 0 1 32 69 70 149 64
131 82 158 115 167 13 3 29 9 330 139 319 138 1527 656 1575 677 19 8 42 19
50 23 22 13 24 12 9 -7z"/>
</g>
</svg>
